<?xml version="1.0" encoding="UTF-8"?>
<!-- Generator: visioncortex VTracer 0.6.3 -->
<svg version="1.1" xmlns="http://www.w3.org/2000/svg" width="1042" height="667">
<path d="M0 0 C0.73 0 1.46 0 2.21 0 C3.05 -0 3.89 -0.01 4.75 -0.01 C5.68 -0.01 6.61 0 7.56 0.01 C8.55 0.01 9.53 0.01 10.54 0 C13.85 -0 17.16 0.02 20.47 0.03 C22.84 0.03 25.2 0.03 27.57 0.03 C33.33 0.03 39.1 0.04 44.87 0.06 C51.58 0.08 58.29 0.09 65 0.09 C76.97 0.1 88.94 0.12 100.9 0.15 C112.53 0.17 124.16 0.2 135.78 0.21 C136.86 0.21 136.86 0.21 137.95 0.21 C141.55 0.21 145.14 0.22 148.74 0.22 C178.56 0.25 208.39 0.31 238.21 0.37 C236.31 4.45 233.6 7.58 230.65 10.94 C229.56 12.19 228.46 13.46 227.37 14.72 C226.56 15.65 226.56 15.65 225.74 16.6 C223.66 19.01 221.65 21.47 219.65 23.94 C216.38 27.96 213.07 31.93 209.71 35.87 C206.34 39.84 203 43.83 199.71 47.87 C195.96 52.48 192.14 57.01 188.3 61.54 C185.4 64.95 182.54 68.4 179.71 71.87 C175.96 76.48 172.14 81.01 168.3 85.54 C165.4 88.95 162.54 92.4 159.71 95.87 C155.96 100.48 152.14 105.01 148.3 109.54 C145.4 112.95 142.54 116.4 139.71 119.87 C135.96 124.48 132.14 129.01 128.3 133.54 C125.4 136.95 122.54 140.4 119.71 143.87 C116.42 147.91 113.09 151.9 109.71 155.87 C105.58 160.73 101.52 165.64 97.49 170.58 C93.44 175.54 89.32 180.46 85.21 185.37 C86.74 190.43 89.82 193.66 93.28 197.5 C94.46 198.84 95.65 200.19 96.84 201.53 C97.42 202.19 98 202.85 98.6 203.52 C100.71 205.95 102.75 208.43 104.78 210.94 C108.18 215.14 111.68 219.27 115.21 223.37 C119.53 228.39 123.76 233.46 127.94 238.6 C130.49 241.72 133.1 244.8 135.71 247.87 C139.07 251.82 142.38 255.79 145.65 259.81 C149.11 264.06 152.64 268.23 156.21 272.37 C160.53 277.39 164.76 282.46 168.94 287.6 C171.49 290.72 174.1 293.8 176.71 296.87 C180.07 300.82 183.38 304.79 186.65 308.81 C190.11 313.06 193.64 317.23 197.21 321.37 C201.53 326.39 205.77 331.46 209.94 336.6 C214.3 341.92 218.76 347.14 223.21 352.37 C225.19 354.7 227.17 357.04 229.15 359.37 C229.6 359.9 230.05 360.43 230.51 360.97 C231.75 362.43 232.98 363.9 234.21 365.37 C234.98 366.28 235.74 367.19 236.53 368.12 C238.21 370.37 238.21 370.37 238.21 372.37 C207.83 372.67 177.44 372.9 147.05 373.04 C143.46 373.05 139.87 373.07 136.28 373.09 C135.56 373.09 134.85 373.09 134.11 373.1 C122.55 373.15 110.99 373.26 99.43 373.38 C87.56 373.5 75.69 373.57 63.82 373.6 C57.15 373.61 50.49 373.65 43.82 373.75 C37.55 373.84 31.27 373.86 24.99 373.84 C22.69 373.85 20.39 373.87 18.09 373.92 C-0.17 374.3 -0.17 374.3 -5.51 369.57 C-8.42 366.44 -10.57 363.02 -12.79 359.37 C-14.26 357.52 -15.76 355.68 -17.29 353.87 C-18.01 352.99 -18.73 352.1 -19.47 351.19 C-22.51 347.49 -25.61 343.85 -28.7 340.21 C-31.58 336.81 -34.42 333.39 -37.22 329.94 C-40.68 325.69 -44.21 321.52 -47.79 317.37 C-52.11 312.36 -56.34 307.28 -60.52 302.14 C-64.87 296.83 -69.34 291.61 -73.79 286.37 C-79.75 279.36 -85.66 272.32 -91.47 265.19 C-94.51 261.49 -97.61 257.85 -100.7 254.21 C-103.58 250.81 -106.42 247.39 -109.22 243.94 C-112.68 239.69 -116.21 235.52 -119.79 231.37 C-124.11 226.36 -128.34 221.28 -132.51 216.15 C-135.05 213.05 -137.63 209.99 -140.22 206.94 C-140.68 206.39 -141.14 205.85 -141.6 205.3 C-143.96 202.51 -146.33 199.75 -148.74 197.02 C-149.45 196.21 -149.45 196.21 -150.17 195.39 C-151.46 193.89 -152.77 192.41 -154.08 190.93 C-155.79 188.37 -155.79 188.37 -155.87 186.41 C-154.25 183.36 -152.06 180.88 -149.79 178.31 C-148.78 177.14 -147.77 175.97 -146.76 174.81 C-146.25 174.23 -145.75 173.65 -145.23 173.05 C-143.2 170.69 -141.24 168.29 -139.29 165.87 C-135.54 161.27 -131.72 156.73 -127.87 152.21 C-124.97 148.79 -122.12 145.35 -119.29 141.87 C-115.54 137.27 -111.72 132.73 -107.87 128.21 C-104.97 124.79 -102.12 121.35 -99.29 117.87 C-95.54 113.27 -91.72 108.73 -87.87 104.21 C-84.97 100.79 -82.12 97.35 -79.29 93.87 C-75.54 89.27 -71.72 84.73 -67.87 80.21 C-64.97 76.79 -62.12 73.35 -59.29 69.87 C-55.54 65.27 -51.72 60.73 -47.87 56.21 C-44.97 52.79 -42.12 49.35 -39.29 45.87 C-35.54 41.27 -31.72 36.73 -27.87 32.21 C-24.24 27.92 -20.67 23.58 -17.13 19.22 C-13.94 15.34 -10.68 11.51 -7.42 7.7 C-1.04 0.22 -1.04 0.22 0 0 Z " fill="#FF7A57" transform="translate(485.7872840166092,162.62740451097488)"/>
<path d="M0 0 C51.81 0 103.62 0 157 0 C157.25 14.73 157.5 29.45 157.75 44.62 C157.91 51.56 157.91 51.56 158.08 58.64 C158.14 64.35 158.14 64.35 158.15 67.04 C158.16 68.88 158.21 70.73 158.27 72.58 C158.6 83.08 158.52 90.91 151.21 98.98 C149.67 100.56 148.09 102.08 146.47 103.58 C144.24 105.73 142.35 108.13 140.44 110.56 C137.17 114.58 133.85 118.55 130.5 122.5 C127.13 126.47 123.79 130.46 120.5 134.5 C116.75 139.1 112.93 143.64 109.09 148.16 C106.19 151.58 103.33 155.03 100.5 158.5 C96.75 163.1 92.93 167.64 89.09 172.16 C86.19 175.58 83.33 179.03 80.5 182.5 C76.75 187.1 72.93 191.64 69.09 196.16 C66.19 199.58 63.33 203.03 60.5 206.5 C56.75 211.1 52.93 215.64 49.09 220.16 C46.19 223.58 43.33 227.03 40.5 230.5 C36.75 235.1 32.93 239.64 29.09 244.16 C25.45 248.45 21.88 252.8 18.34 257.16 C16.6 259.27 14.85 261.36 13.07 263.43 C12.57 264.02 12.07 264.6 11.55 265.2 C10.58 266.33 9.61 267.46 8.63 268.59 C6.34 271.25 4.37 273.75 3 277 C4.14 278.32 4.14 278.32 5.31 279.68 C10.1 285.24 14.87 290.8 19.5 296.5 C22.93 300.73 26.45 304.88 30 309 C34.32 314.02 38.55 319.09 42.73 324.23 C47.09 329.54 51.55 334.77 56 340 C61.96 347.01 67.88 354.05 73.69 361.19 C76.72 364.88 79.82 368.52 82.92 372.17 C85.8 375.56 88.63 378.98 91.44 382.44 C94.89 386.68 98.43 390.85 102 395 C106.32 400.02 110.55 405.09 114.73 410.23 C119.09 415.54 123.55 420.77 128 426 C134.75 433.94 141.42 441.92 148 450 C150.97 453.63 153.94 457.26 157 461 C157 480.8 157 500.6 157 521 C105.19 521 53.38 521 0 521 C0 349.07 0 177.14 0 0 Z " fill="#FF7A57" transform="translate(300,73)"/>
</svg>
